<svg width="40" height="40" viewBox="0 0 40 40" fill="none" xmlns="http://www.w3.org/2000/svg">
<g clip-path="url(#clip0_164_1456)">
<path d="M40 7.1795H0V32.8205H40V7.1795Z" fill="#181818"/>
<path d="M0.0119752 19.2661H1.93203L2.36495 18.2656H3.33418L3.76598 19.2661H7.54382V18.5012L7.88105 19.2694H9.84223L10.1795 18.4898V19.2661H19.5682L19.5638 17.6238H19.7455C19.8726 17.628 19.9098 17.6393 19.9098 17.8405V19.2661H24.7656V18.8838C25.1574 19.0849 25.7665 19.2661 26.5681 19.2661H28.611L29.0481 18.2656H30.0174L30.4449 19.2661H34.3816V18.3158L34.9778 19.2661H38.1324V12.9836H35.0103V13.7255L34.5733 12.9836H31.3697V13.7255L30.9682 12.9836H26.6411C25.9168 12.9836 25.2801 13.0805 24.7657 13.3504V12.9836H21.7796V13.3504C21.4523 13.0721 21.0063 12.9836 20.5104 12.9836H9.60064L8.86864 14.6062L8.1169 12.9836H4.68075V13.7255L4.30321 12.9836H1.37269L0.0117188 15.9706V19.266H0.0118726L0.0119752 19.2661ZM12.132 18.3599H10.98L10.9757 14.832L9.34623 18.3599H8.35957L6.72582 14.8289V18.3599H4.44018L4.00839 17.3552H1.66854L1.23239 18.3599H0.0118213L2.02418 13.8554H3.69387L5.6051 18.1202V13.8554H7.43926L8.90993 16.9112L10.2609 13.8554H12.1319L12.132 18.3599ZM3.62428 16.4203L2.85515 14.6246L2.09028 16.4203H3.62428ZM16.7166 18.3598H12.9626V13.8554H16.7166V14.7934H14.0864V15.6053H16.6536V16.5287H14.0863V17.4282H16.7165L16.7166 18.3598ZM22.0069 15.0686C22.0069 15.7867 21.5066 16.1578 21.2151 16.2692C21.461 16.3588 21.6711 16.5173 21.771 16.6485C21.9297 16.8726 21.9571 17.0727 21.9571 17.475V18.3598H20.8235L20.8193 17.7918C20.8193 17.5208 20.8463 17.131 20.6419 16.9142C20.4777 16.7558 20.2274 16.7214 19.8228 16.7214H18.6165V18.3599H17.4927V13.8554H20.0774C20.6517 13.8554 21.0749 13.8699 21.4381 14.0711C21.7937 14.2724 22.0069 14.5661 22.0069 15.0686ZM20.5864 15.7374C20.4319 15.8272 20.2493 15.8302 20.0304 15.8302H18.6653V14.8297H20.049C20.2448 14.8297 20.4492 14.8381 20.582 14.9109C20.7277 14.9766 20.8179 15.1162 20.8179 15.3091C20.8179 15.506 20.7321 15.6645 20.5864 15.7374ZM23.8092 18.3598H22.6626V13.8554H23.8092V18.3598ZM37.1199 18.3598H35.5275L33.3975 14.979V18.3598H31.1089L30.6716 17.3551H28.3372L27.913 18.3598H26.5977C26.0516 18.3598 25.3599 18.2441 24.9683 17.8616C24.5734 17.4792 24.3679 16.9611 24.3679 16.142C24.3679 15.4739 24.4907 14.8632 24.9737 14.3806C25.337 14.0211 25.906 13.8554 26.6803 13.8554H27.7683V14.8206H26.7031C26.293 14.8206 26.0614 14.879 25.8384 15.0874C25.6469 15.2771 25.5154 15.6356 25.5154 16.1077C25.5154 16.5903 25.6155 16.9383 25.8243 17.1656C25.9973 17.3438 26.3118 17.3979 26.6075 17.3979H27.1122L28.696 13.8555H30.3798L32.2825 18.1161V13.8556H33.9936L35.9689 16.9927V13.8556H37.1199V18.3598ZM30.2892 16.4204L29.5115 14.6246L28.7381 16.4204H30.2892ZM39.9835 25.5527C39.7106 25.9351 39.1787 26.129 38.4586 26.129H36.2884V25.1628H38.4498C38.6642 25.1628 38.8142 25.1358 38.9045 25.0513C38.9899 24.9757 39.0381 24.869 39.0374 24.7575C39.0374 24.6261 38.9829 24.5219 38.9001 24.4595C38.8186 24.3907 38.6999 24.3595 38.5041 24.3595C37.4491 24.3251 36.1326 24.3907 36.1326 22.9649C36.1326 22.3115 36.5656 21.6236 37.7449 21.6236H39.9833V20.7272H37.9035C37.2759 20.7272 36.8199 20.8713 36.4971 21.0951V20.7272H33.4209C32.9289 20.7272 32.3515 20.844 32.0784 21.0951V20.7272H26.5851V21.0951C26.1479 20.793 25.4103 20.7272 25.0697 20.7272H21.4463V21.0951C21.1004 20.7742 20.3314 20.7272 19.8624 20.7272H15.8072L14.8793 21.6894L14.0101 20.7272H7.95218V27.0138H13.8958L14.852 26.0363L15.7527 27.0138L19.4164 27.017V25.5381H19.7765C20.2626 25.5453 20.836 25.5264 21.3418 25.317V27.0136H24.3637V25.3751H24.5095C24.6955 25.3751 24.7138 25.3825 24.7138 25.5605V27.0134H33.8938C34.4766 27.0134 35.0858 26.8706 35.4233 26.6111V27.0134H38.3351C38.941 27.0134 39.5327 26.932 39.983 26.7237L39.9831 25.5525L39.9835 25.5527ZM21.7815 23.1345C21.7815 24.386 20.8069 24.6445 19.8246 24.6445H18.4224V26.1557H16.2382L14.8544 24.6641L13.4164 26.1557H8.965V21.6501H13.4847L14.8674 23.127L16.2969 21.6501H19.8877C20.7794 21.6501 21.7815 21.8867 21.7815 23.1345ZM12.8471 25.208H10.0841V24.3116H12.5513V23.3923H10.0841V22.5731H12.9015L14.1307 23.8861L12.8471 25.208ZM17.2989 25.7239L15.5736 23.8886L17.2989 22.1116V25.7239ZM19.8505 23.7205H18.3983V22.5731H19.8636C20.2693 22.5731 20.551 22.7316 20.551 23.1255C20.551 23.5152 20.2823 23.7205 19.8505 23.7205ZM27.4588 21.6501H31.2094V22.5819H28.5779V23.401H31.1452V24.3203H28.5779V25.2167L31.2094 25.2208V26.1557H27.4586L27.4588 21.6501ZM26.0168 24.0618C26.2669 24.1503 26.4714 24.3088 26.5672 24.44C26.7259 24.6601 26.7489 24.8654 26.7534 25.2625V26.1557H25.6251V25.592C25.6251 25.3209 25.6523 24.9196 25.4435 24.71C25.2793 24.5487 25.029 24.5101 24.6191 24.5101H23.418V26.1557H22.2888V21.6501H24.8834C25.4522 21.6501 25.8666 21.6742 26.2355 21.8628C26.5901 22.0681 26.8132 22.3493 26.8132 22.8633C26.8132 23.5824 26.3125 23.9494 26.0168 24.0618ZM25.3816 23.4922C25.2313 23.5777 25.0454 23.5851 24.8269 23.5851H23.4616V22.5732H24.8453C25.0454 22.5732 25.2457 22.5773 25.3816 22.6546C25.5273 22.7276 25.6143 22.8672 25.6143 23.0599C25.6143 23.2526 25.5272 23.4079 25.3816 23.4922ZM35.5262 23.7793C35.7452 23.9961 35.8623 24.2701 35.8623 24.7338C35.8623 25.703 35.2304 26.1555 34.097 26.1555H31.9082V25.1893H34.0882C34.3014 25.1893 34.4525 25.1624 34.5472 25.0778C34.6245 25.0081 34.68 24.9069 34.68 24.784C34.68 24.6527 34.62 24.5485 34.5428 24.486C34.4569 24.4173 34.3384 24.386 34.1427 24.386C33.0917 24.3517 31.7756 24.4173 31.7756 22.9916C31.7756 22.338 32.2041 21.6501 33.3823 21.6501H35.6352V22.6091H33.5738C33.3695 22.6091 33.2366 22.6166 33.1236 22.6905C33.0005 22.7634 32.9549 22.8717 32.9549 23.0146C32.9549 23.1845 33.0593 23.3002 33.2008 23.3502C33.3193 23.3897 33.4466 23.4013 33.638 23.4013L34.243 23.417C34.853 23.4311 35.2717 23.5322 35.5262 23.7793ZM39.9855 22.5731H37.9374C37.733 22.5731 37.597 22.5805 37.4827 22.6545C37.3641 22.7275 37.3184 22.8357 37.3184 22.9787C37.3184 23.1487 37.4185 23.2642 37.5641 23.3143C37.6827 23.3538 37.81 23.3654 37.9972 23.3654L38.6063 23.381C39.2208 23.3955 39.631 23.4968 39.8812 23.7436C39.9269 23.778 39.9541 23.8166 39.9854 23.8552V22.5731H39.9855Z" fill="#FBF4EB"/>
</g>
<defs>
<clipPath id="clip0_164_1456">
<rect width="40" height="40" fill="white"/>
</clipPath>
</defs>
</svg>
