<svg width="40" height="40" viewBox="0 0 40 40" fill="none" xmlns="http://www.w3.org/2000/svg">
<path d="M7.30875 13.8753C6.83995 14.4301 6.08987 14.8676 5.33978 14.8051C5.24602 14.055 5.61325 13.258 6.04298 12.7658C6.51179 12.1954 7.3322 11.7891 7.99633 11.7579C8.07447 12.5392 7.76975 13.3049 7.30875 13.8753ZM7.98852 14.9536C6.90246 14.891 5.97266 15.5708 5.45698 15.5708C4.93348 15.5708 4.14433 14.9848 3.28486 15.0004C2.16754 15.0161 1.12836 15.6489 0.557982 16.6569C-0.614028 18.6727 0.253259 21.6574 1.3862 23.2983C1.94095 24.1109 2.60509 25.0016 3.48019 24.9703C4.30841 24.9391 4.63657 24.4312 5.63669 24.4312C6.64462 24.4312 6.93371 24.9703 7.80881 24.9547C8.71517 24.9391 9.28554 24.1421 9.84029 23.3295C10.4732 22.4075 10.731 21.509 10.7466 21.4621C10.731 21.4465 8.99645 20.7823 8.98082 18.7821C8.96519 17.11 10.3482 16.3131 10.4107 16.2662C9.62933 15.1098 8.41044 14.9848 7.98852 14.9536ZM14.2627 12.6877V24.8688H16.1535V20.7042H18.771C21.1619 20.7042 22.8418 19.0634 22.8418 16.6881C22.8418 14.3129 21.1932 12.6877 18.8335 12.6877H14.2627ZM16.1535 14.2816H18.3335C19.9743 14.2816 20.9119 15.1567 20.9119 16.6959C20.9119 18.2352 19.9743 19.1181 18.3256 19.1181H16.1535V14.2816ZM26.2953 24.9625C27.4829 24.9625 28.5846 24.3609 29.0847 23.4076H29.1238V24.8688H30.874V18.8056C30.874 17.0475 29.4675 15.9146 27.3032 15.9146C25.2952 15.9146 23.8106 17.0632 23.756 18.6415H25.4593C25.5999 17.8914 26.2953 17.3991 27.2485 17.3991C28.4049 17.3991 29.0534 17.9383 29.0534 18.9306V19.6025L26.6938 19.7432C24.4982 19.876 23.3106 20.7745 23.3106 22.3372C23.3106 23.9155 24.5373 24.9625 26.2953 24.9625ZM26.8032 23.517C25.7952 23.517 25.1546 23.0326 25.1546 22.2903C25.1546 21.5246 25.7718 21.0793 26.9516 21.0089L29.0534 20.8761V21.5637C29.0534 22.7044 28.0846 23.517 26.8032 23.517ZM33.2102 28.1816C35.0541 28.1816 35.9214 27.4784 36.6793 25.3454L40 16.0318H38.0779L35.8511 23.2279H35.812L33.5852 16.0318H31.6084L34.8119 24.9L34.64 25.4391C34.3509 26.3533 33.8821 26.7049 33.0461 26.7049C32.8976 26.7049 32.6085 26.6893 32.4913 26.6736V28.1347C32.6007 28.166 33.0695 28.1816 33.2102 28.1816Z" fill="#181818"/>
</svg>
