<svg width="20" height="20" viewBox="0 0 20 20" fill="none" xmlns="http://www.w3.org/2000/svg">
<circle cx="10.3652" cy="8.9082" r="4" fill="#FBF4EB"/>
<path fill-rule="evenodd" clip-rule="evenodd" d="M9.63655 17.8835L9.69209 17.9151L9.7143 17.9277C9.8024 17.9752 9.90097 18 10.0011 18C10.1013 18 10.1998 17.9752 10.2879 17.9277L10.3101 17.9159L10.3665 17.8835C10.6768 17.7002 10.9796 17.5046 11.2741 17.2971C12.0366 16.761 12.749 16.1575 13.4028 15.494C14.9451 13.9215 16.547 11.5588 16.547 8.51901C16.547 6.79006 15.8574 5.13192 14.6298 3.90937C13.4023 2.68682 11.7375 2 10.0015 2C8.26555 2 6.60068 2.68682 5.37317 3.90937C4.14566 5.13192 3.45605 6.79006 3.45605 8.51901C3.45605 11.5581 5.0587 13.9215 6.60025 15.494C7.25372 16.1575 7.96589 16.761 8.72812 17.2971C9.02292 17.5046 9.32597 17.7002 9.63655 17.8835ZM10.0015 10.8896C10.6328 10.8896 11.2382 10.6398 11.6845 10.1952C12.1309 9.75067 12.3817 9.14772 12.3817 8.51901C12.3817 7.8903 12.1309 7.28734 11.6845 6.84278C11.2382 6.39821 10.6328 6.14846 10.0015 6.14846C9.37025 6.14846 8.76485 6.39821 8.31848 6.84278C7.87211 7.28734 7.62134 7.8903 7.62134 8.51901C7.62134 9.14772 7.87211 9.75067 8.31848 10.1952C8.76485 10.6398 9.37025 10.8896 10.0015 10.8896Z" fill="#BDB9B8"/>
</svg>
