<svg width="40" height="40" viewBox="0 0 40 40" fill="none" xmlns="http://www.w3.org/2000/svg">
<g clip-path="url(#clip0_164_1468)">
<path d="M18.9192 19.819V24.4737H17.4414V12.9761H21.3588C22.3038 12.956 23.217 13.3146 23.8956 13.9714C24.5825 14.5897 24.9696 15.4744 24.9545 16.3976C24.9746 17.3275 24.5876 18.2189 23.8956 18.8388C23.2103 19.4923 22.3641 19.819 21.3588 19.8173L18.9192 19.819ZM18.9192 14.392V18.4065H21.3957C21.9452 18.4233 22.4747 18.2072 22.8567 17.8117C23.6325 17.0577 23.6509 15.8162 22.8953 15.0404C22.8819 15.027 22.8701 15.0136 22.8567 15.0019C22.4797 14.5981 21.9469 14.3769 21.3957 14.392H18.9192ZM28.3592 16.3507C29.4516 16.3507 30.3129 16.6422 30.9445 17.2253C31.5762 17.8084 31.8912 18.6093 31.8912 19.6247V24.4737H30.4787V23.3812H30.4151C29.8035 24.281 28.9892 24.73 27.9738 24.73C27.1076 24.73 26.382 24.4737 25.799 23.9593C25.2326 23.4817 24.9109 22.7747 24.9243 22.0324C24.9243 21.2181 25.2326 20.5713 25.8476 20.0905C26.4625 19.6096 27.2835 19.3683 28.3123 19.3683C29.1886 19.3683 29.9124 19.5292 30.4787 19.8492V19.5107C30.4821 19.0047 30.2576 18.5255 29.8688 18.2038C29.4784 17.8519 28.9691 17.6593 28.443 17.666C27.6186 17.666 26.9651 18.0145 26.4843 18.7098L25.184 17.8905C25.8978 16.8634 26.9568 16.3507 28.3592 16.3507ZM26.4474 22.0659C26.4457 22.4479 26.6284 22.8065 26.9367 23.0293C27.2634 23.2857 27.6689 23.4231 28.0844 23.4147C28.7077 23.413 29.3059 23.1651 29.7465 22.7244C30.2358 22.2636 30.4804 21.7241 30.4804 21.1025C30.0196 20.7355 29.3779 20.5512 28.5535 20.5512C27.9537 20.5512 27.4527 20.6953 27.0523 20.9852C26.6485 21.2801 26.4474 21.637 26.4474 22.0659ZM40.0008 16.607L35.0697 27.942H33.545L35.3746 23.976L32.1308 16.607H33.736L36.08 22.2586H36.1119L38.3923 16.607H40.0008Z" fill="#181818"/>
<path d="M12.949 18.8137C12.949 18.363 12.9122 17.914 12.8351 17.47H6.60547V20.0134H10.1727C10.0252 20.8344 9.54938 21.5599 8.85403 22.0207V23.6728H10.9836C12.2302 22.5251 12.949 20.8244 12.949 18.8137Z" fill="#615F5E"/>
<path d="M6.60435 25.2696C8.38712 25.2696 9.8884 24.6848 10.9825 23.6745L8.85292 22.0224C8.25978 22.4245 7.49741 22.6541 6.60435 22.6541C4.8819 22.6541 3.41916 21.4929 2.8964 19.928H0.703125V21.6303C1.82406 23.8621 4.10781 25.2696 6.60435 25.2696Z" fill="#84807F"/>
<path d="M2.897 19.9279C2.62053 19.1086 2.62053 18.2189 2.897 17.3995V15.6972H0.703724C-0.234575 17.5637 -0.234575 19.7637 0.703724 21.6303L2.897 19.9279Z" fill="#BDB9B8"/>
<path d="M6.60435 14.6735C7.546 14.6584 8.45582 15.0137 9.13776 15.6638L11.0244 13.7788C9.82808 12.6562 8.2447 12.0396 6.60435 12.058C4.10781 12.058 1.82406 13.4671 0.703125 15.6973L2.8964 17.3996C3.41916 15.8347 4.8819 14.6735 6.60435 14.6735Z" fill="#CAC6C5"/>
</g>
<defs>
<clipPath id="clip0_164_1468">
<rect width="40" height="40" fill="white"/>
</clipPath>
</defs>
</svg>
