<svg width="30" height="30" viewBox="0 0 30 30" fill="none" xmlns="http://www.w3.org/2000/svg">
<g clip-path="url(#clip0_164_1272)">
<path d="M30 0H0V30H30V0Z" fill="#1A1A19"/>
<path d="M15.0001 9.26508C16.8556 9.26508 17.1086 9.26508 17.8676 9.26508C18.5423 9.26508 18.8797 9.43376 19.1327 9.5181C19.4701 9.68677 19.7231 9.77111 19.9761 10.0241C20.2291 10.2771 20.3978 10.5302 20.4821 10.8675C20.5665 11.1205 20.6508 11.4579 20.7351 12.1326C20.7351 12.8916 20.7351 13.0603 20.7351 15.0001C20.7351 16.9399 20.7351 17.1086 20.7351 17.8676C20.7351 18.5423 20.5665 18.8797 20.4821 19.1327C20.3135 19.4701 20.2291 19.7231 19.9761 19.9761C19.7231 20.2291 19.4701 20.3978 19.1327 20.4821C18.8797 20.5665 18.5423 20.6508 17.8676 20.7351C17.1086 20.7351 16.9399 20.7351 15.0001 20.7351C13.0603 20.7351 12.8916 20.7351 12.1326 20.7351C11.4579 20.7351 11.1205 20.5665 10.8675 20.4821C10.5302 20.3135 10.2771 20.2291 10.0241 19.9761C9.77111 19.7231 9.60244 19.4701 9.5181 19.1327C9.43376 18.8797 9.34942 18.5423 9.26508 17.8676C9.26508 17.1086 9.26508 16.9399 9.26508 15.0001C9.26508 13.0603 9.26508 12.8916 9.26508 12.1326C9.26508 11.4579 9.43376 11.1205 9.5181 10.8675C9.68677 10.5302 9.77111 10.2771 10.0241 10.0241C10.2771 9.77111 10.5302 9.60244 10.8675 9.5181C11.1205 9.43376 11.4579 9.34942 12.1326 9.26508C12.8916 9.26508 13.1447 9.26508 15.0001 9.26508ZM15.0001 8C13.0603 8 12.8916 8 12.1326 8C11.3735 8 10.8675 8.16868 10.4458 8.33736C10.0241 8.50603 9.60244 8.75905 9.18074 9.18074C8.75905 9.60244 8.59037 9.93979 8.33736 10.4458C8.16868 10.8675 8.08434 11.3735 8 12.1326C8 12.8916 8 13.1447 8 15.0001C8 16.9399 8 17.1086 8 17.8676C8 18.6267 8.16868 19.1327 8.33736 19.5544C8.50603 19.9761 8.75905 20.3978 9.18074 20.8195C9.60244 21.2412 9.93979 21.4099 10.4458 21.6629C10.8675 21.8316 11.3735 21.9159 12.1326 22.0002C12.8916 22.0002 13.1447 22.0002 15.0001 22.0002C16.8556 22.0002 17.1086 22.0002 17.8676 22.0002C18.6267 22.0002 19.1327 21.8316 19.5544 21.6629C19.9761 21.4942 20.3978 21.2412 20.8195 20.8195C21.2412 20.3978 21.4099 20.0604 21.6629 19.5544C21.8316 19.1327 21.9159 18.6267 22.0002 17.8676C22.0002 17.1086 22.0002 16.8556 22.0002 15.0001C22.0002 13.1447 22.0002 12.8916 22.0002 12.1326C22.0002 11.3735 21.8316 10.8675 21.6629 10.4458C21.4942 10.0241 21.2412 9.60244 20.8195 9.18074C20.3978 8.75905 20.0604 8.59037 19.5544 8.33736C19.1327 8.16868 18.6267 8.08434 17.8676 8C17.1086 8 16.9399 8 15.0001 8Z" fill="white"/>
<path d="M15.0001 11.3735C12.976 11.3735 11.3735 12.976 11.3735 15.0001C11.3735 17.0242 12.976 18.6267 15.0001 18.6267C17.0242 18.6267 18.6267 17.0242 18.6267 15.0001C18.6267 12.976 17.0242 11.3735 15.0001 11.3735ZM15.0001 17.3616C13.735 17.3616 12.6386 16.3495 12.6386 15.0001C12.6386 13.735 13.6507 12.6386 15.0001 12.6386C16.2652 12.6386 17.3616 13.6507 17.3616 15.0001C17.3616 16.2652 16.2652 17.3616 15.0001 17.3616Z" fill="white"/>
<path d="M18.711 12.1326C19.1768 12.1326 19.5544 11.755 19.5544 11.2892C19.5544 10.8234 19.1768 10.4458 18.711 10.4458C18.2452 10.4458 17.8676 10.8234 17.8676 11.2892C17.8676 11.755 18.2452 12.1326 18.711 12.1326Z" fill="white"/>
</g>
<defs>
<clipPath id="clip0_164_1272">
<rect width="30" height="30" rx="15" fill="white"/>
</clipPath>
</defs>
</svg>
