<svg width="40" height="41" viewBox="0 0 40 41" fill="none" xmlns="http://www.w3.org/2000/svg">
<path d="M0 20.8242C0 9.77852 8.95431 0.824219 20 0.824219C31.0457 0.824219 40 9.77852 40 20.8242C40 31.8699 31.0457 40.8242 20 40.8242C8.95431 40.8242 0 31.8699 0 20.8242Z" fill="#3C2B8B"/>
<path d="M19.9997 21.1878C22.9917 21.1878 25.4175 18.8679 25.4175 16.006C25.4175 13.145 22.9917 10.8242 19.9997 10.8242C17.0074 10.8242 14.582 13.145 14.582 16.006C14.582 18.8679 17.0074 21.1878 19.9997 21.1878Z" fill="#F2F2F2"/>
<path d="M26.9384 26.1799C26.6965 24.7941 25.468 22.8787 24.5877 21.982C24.3496 21.7393 23.9363 21.8403 23.7911 21.9263C22.6867 22.5775 21.3902 22.9575 20 22.9575C18.6098 22.9575 17.3133 22.5775 16.2089 21.9263C16.0637 21.8403 15.6503 21.7393 15.4122 21.982C14.532 22.8787 13.3035 24.7941 13.0616 26.1799C12.4672 29.5916 16.2782 30.8242 20 30.8242C23.7219 30.8242 27.5328 29.5916 26.9384 26.1799Z" fill="#F2F2F2"/>
</svg>
