<svg width="40" height="40" viewBox="0 0 40 40" fill="none" xmlns="http://www.w3.org/2000/svg">
<path d="M15.0359 25.0631L16.7466 15.0241H19.4829L17.7709 25.0631H15.0359ZM27.6569 15.2405C27.1149 15.0372 26.2653 14.8189 25.2045 14.8189C22.5006 14.8189 20.5962 16.1805 20.5799 18.1319C20.5646 19.5744 21.9396 20.3792 22.9775 20.8594C24.0427 21.3516 24.4007 21.6653 24.3956 22.1047C24.3887 22.7776 23.545 23.0849 22.7584 23.0849C21.6633 23.0849 21.0814 22.9328 20.1828 22.5581L19.8301 22.3985L19.4461 24.6458C20.0852 24.9262 21.267 25.1689 22.4942 25.1815C25.3706 25.1815 27.2379 23.8354 27.2591 21.7515C27.2693 20.6094 26.5404 19.7404 24.9617 19.0239C24.0052 18.5595 23.4195 18.2496 23.4257 17.7793C23.4257 17.362 23.9215 16.9158 24.9929 16.9158C25.8876 16.9019 26.5359 17.0971 27.0409 17.3004L27.2861 17.4163L27.6569 15.2405ZM34.6984 15.024H32.5841C31.9291 15.024 31.4388 15.2028 31.1512 15.8565L27.0874 25.0565H29.9608C29.9608 25.0565 30.4305 23.8195 30.5367 23.5479C30.8507 23.5479 33.6421 23.5522 34.0411 23.5522C34.123 23.9037 34.3741 25.0565 34.3741 25.0565H36.9131L34.6984 15.0237V15.024ZM31.3437 21.5065C31.5701 20.9281 32.434 18.7002 32.434 18.7002C32.4179 18.7269 32.6586 18.119 32.7967 17.742L32.9817 18.6076C32.9817 18.6076 33.5056 21.0039 33.6151 21.5064H31.3437V21.5065ZM12.7129 15.024L10.034 21.8701L9.74863 20.4789C9.24986 18.8751 7.69606 17.1375 5.95898 16.2676L8.40857 25.0471L11.3037 25.0439L15.6116 15.0239L12.7129 15.0238" fill="#181818"/>
<path d="M7.53522 15.0236H3.12287L3.08789 15.2325C6.52066 16.0635 8.79199 18.0716 9.73507 20.4848L8.77564 15.8715C8.61005 15.2358 8.12963 15.046 7.53533 15.0239" fill="#84807F"/>
</svg>
